<svg width="702" height="518" viewBox="0 0 702 518" fill="none" xmlns="http://www.w3.org/2000/svg">
<path d="M137.572 86.9837C151.106 86.9837 162.077 75.7155 162.077 61.8155C162.077 47.9155 151.106 36.6474 137.572 36.6474C124.039 36.6474 113.068 47.9155 113.068 61.8155C113.068 75.7155 124.039 86.9837 137.572 86.9837Z" fill="#2F2E41"/>
<path d="M62.9387 364.82L77.9936 311.194L83.1187 312.839C83.1187 312.839 77.0326 352.976 67.4232 363.175L62.9387 364.82Z" fill="#2F2E41"/>
<path d="M120.275 76.9493C120.275 76.9493 122.197 98.005 117.713 103.927C113.228 109.849 120.596 121.364 120.596 121.364L134.049 137.813L153.908 128.602L156.791 111.494L154.869 99.65C154.869 99.65 148.143 92.7411 151.026 80.2393C153.908 67.7374 120.275 76.9493 120.275 76.9493Z" fill="#FFB9B9"/>
<path opacity="0.1" d="M120.275 76.9493C120.275 76.9493 122.197 98.005 117.713 103.927C113.228 109.849 120.596 121.364 120.596 121.364L134.049 137.813L153.908 128.602L156.791 111.494L154.869 99.65C154.869 99.65 148.143 92.7411 151.026 80.2393C153.908 67.7374 120.275 76.9493 120.275 76.9493Z" fill="black"/>
<path d="M131.807 470.757V484.245L149.424 487.864L147.822 465.493L131.807 470.757Z" fill="#FFB9B9"/>
<path d="M184.659 465.493L180.815 484.245L188.503 489.838L201.956 479.64L200.355 463.518L184.659 465.493Z" fill="#FFB9B9"/>
<path d="M151.026 486.22C151.026 486.22 144.299 474.542 131.807 481.861C131.807 481.861 129.564 494.774 127.322 495.76C125.08 496.747 112.588 515.5 127.322 517.145C142.057 518.79 149.424 513.855 149.424 513.855C149.424 513.855 146.541 516.403 151.026 515.087C155.51 513.771 153.588 506.533 153.588 506.533L151.026 486.22Z" fill="#2F2E41"/>
<path d="M194.909 478.324C194.909 478.324 184.979 485.562 183.378 482.272C181.776 478.982 179.213 479.311 179.213 479.311C179.213 479.311 170.245 514.037 176.01 515.682C179.723 516.621 183.623 516.414 187.221 515.087C187.221 515.087 194.909 509.557 194.909 513.834C194.909 518.111 216.37 517.803 225.339 517.474C234.308 517.145 229.503 510.236 229.503 510.236L217.651 498.392L204.198 478.324C204.198 478.324 198.112 472.731 194.909 478.324Z" fill="#2F2E41"/>
<path d="M100.416 258.226L113.869 390.811C113.869 390.811 121.236 471.744 122.517 473.06C123.799 474.376 132.127 478.653 150.385 473.06L146.221 367.123L153.908 301.324L171.526 346.726C171.526 346.726 175.69 468.783 178.573 468.783C181.456 468.783 199.073 474.705 203.237 467.467C207.401 460.229 206.761 382.257 206.761 382.257C206.761 382.257 204.839 259.213 190.745 255.265C176.651 251.317 100.416 258.226 100.416 258.226Z" fill="#2F2E41"/>
<path d="M137.572 89.1222C149.779 89.1222 159.674 78.9587 159.674 66.4215C159.674 53.8842 149.779 43.7208 137.572 43.7208C125.366 43.7208 115.471 53.8842 115.471 66.4215C115.471 78.9587 125.366 89.1222 137.572 89.1222Z" fill="#FFB9B9"/>
<path d="M138.854 129.589C138.854 129.589 136.611 115.442 136.611 112.81C136.611 110.178 126.682 108.533 126.682 108.533C126.682 108.533 118.994 99.65 117.392 100.966C115.791 102.282 91.4468 119.061 87.603 121.364C83.7593 123.667 79.5951 133.537 79.9155 134.195C80.2358 134.853 100.095 177.622 100.095 177.622C100.095 177.622 108.744 203.942 102.658 217.759C96.5719 231.577 88.8843 258.884 100.095 264.477C111.306 270.07 165.76 282.242 175.69 271.715C185.62 261.187 192.667 258.226 195.229 258.226C197.792 258.226 184.659 212.495 187.542 208.218C190.425 203.942 186.26 177.293 186.26 177.293L200.995 134.853C200.995 134.853 199.714 111.165 170.565 105.901L153.127 97.2169L138.854 129.589Z" fill="#00ADB5"/>
<path d="M78.9545 264.148C78.9545 264.148 77.3529 279.939 77.3529 284.545C77.3529 289.151 69.6653 316.129 80.8764 319.419C92.0874 322.709 91.1265 283.558 91.1265 283.558V263.49L78.9545 264.148Z" fill="#FFB9B9"/>
<path d="M211.886 249.343C211.886 249.343 213.808 264.477 212.847 267.767C211.886 271.057 222.136 299.679 208.362 301.324C194.589 302.969 198.112 267.109 198.112 267.109V249.343L211.886 249.343Z" fill="#FFB9B9"/>
<path d="M76.0717 359.556L85.3608 308.891H88.2437C90.2593 311.56 91.5814 314.711 92.0857 318.049C92.59 321.387 92.2599 324.802 91.1265 327.973C87.2827 339.159 84.0796 359.556 84.0796 359.556H76.0717Z" fill="#2F2E41"/>
<path d="M84.7202 130.247L79.9155 134.195C79.9155 134.195 73.5091 238.815 75.1107 246.711C76.7123 254.607 69.345 265.793 75.7514 266.78C82.1577 267.767 89.8453 272.044 93.3688 269.412C96.8922 266.78 97.5329 257.239 98.8141 254.936C100.095 252.633 102.338 225.326 102.338 225.326C102.338 225.326 109.064 198.02 104.9 177.622C100.736 157.224 96.8922 136.498 96.8922 136.498L84.7202 130.247Z" fill="#00ADB5"/>
<path d="M186.26 122.022L200.995 134.853L212.206 201.968C212.206 201.968 219.253 254.278 213.808 254.936C208.362 255.594 200.034 253.949 196.51 254.936C192.987 255.923 190.104 253.291 190.104 253.291C190.104 253.291 186.26 232.235 186.26 231.906C186.26 231.577 183.698 207.56 183.698 207.56L180.495 180.583L185.299 150.973L186.26 122.022Z" fill="#00ADB5"/>
<path d="M116.752 432.593C116.752 432.593 114.67 438.736 111.8 447.099C110.467 450.987 108.965 455.36 107.418 459.818C106.422 462.7 105.409 465.618 104.413 468.467C102.824 473.024 101.281 477.399 99.932 481.156C98.151 486.114 96.7064 490 95.9313 491.812C92.4078 500.037 28.0242 486.878 22.8992 483.588C17.7741 480.298 16.4929 469.112 15.8522 453.32C15.849 453.238 15.8458 453.156 15.8458 453.073C15.7625 449.885 16.5537 445.138 17.8766 439.568C18.5365 436.785 19.3308 433.797 20.2149 430.695C21.4001 426.533 22.7455 422.171 24.1516 417.828C30.1928 399.174 37.3134 380.941 37.3134 380.941C37.3134 380.941 49.8057 372.058 54.2901 366.136C58.7746 360.214 83.439 355.608 83.439 355.608C90.4859 355.937 106.502 383.902 112.908 392.456C119.314 401.01 116.752 432.593 116.752 432.593Z" fill="#393E46"/>
<path d="M80.8764 382.586C82.4686 382.586 83.7593 381.26 83.7593 379.625C83.7593 377.99 82.4686 376.664 80.8764 376.664C79.2843 376.664 77.9936 377.99 77.9936 379.625C77.9936 381.26 79.2843 382.586 80.8764 382.586Z" fill="#2F2E41"/>
<path d="M85.3608 384.56C86.2454 384.56 86.9624 383.824 86.9624 382.915C86.9624 382.007 86.2454 381.27 85.3608 381.27C84.4763 381.27 83.7593 382.007 83.7593 382.915C83.7593 383.824 84.4763 384.56 85.3608 384.56Z" fill="#2F2E41"/>
<path d="M111.8 447.099C110.467 450.988 108.965 455.36 107.418 459.818L20.2149 430.695C21.4001 426.533 22.7455 422.171 24.1516 417.828L111.8 447.099Z" fill="#F2F2F2"/>
<path d="M104.413 468.467C102.824 473.024 101.281 477.399 99.932 481.156L15.8458 453.073C15.7625 449.885 16.5537 445.138 17.8767 439.568L104.413 468.467Z" fill="#F2F2F2"/>
<path d="M80.8764 380.283C80.8764 380.283 87.2827 409.235 83.4389 434.896C79.5951 460.558 93.0484 484.575 93.0484 484.575" stroke="#2F2E41" stroke-width="3" stroke-miterlimit="10"/>
<path d="M85.3608 382.586C85.3608 382.586 72.8685 429.303 72.5482 435.883C72.2279 442.463 67.1028 489.51 60.6965 494.444" stroke="#2F2E41" stroke-width="3" stroke-miterlimit="10"/>
<path d="M120.604 52.569C120.604 52.569 115.602 39.209 122.856 34.8413L124.857 40.7505C124.857 40.7505 143.118 29.4459 147.87 32.0152L143.368 38.1813C143.368 38.1813 164.63 38.1813 166.131 46.6598L158.626 46.9167C158.626 46.9167 166.631 52.3121 166.881 61.0475L150.872 62.0752L158.627 66.6998C158.627 66.6998 129.61 70.8106 122.606 58.9921L120.604 52.569Z" fill="#2F2E41"/>
<path d="M116.271 53.0972C116.271 53.0972 122.037 64.941 129.725 61.98C137.412 59.019 129.725 48.1622 129.725 48.1622L124.6 45.5302L116.271 53.0972Z" fill="#2F2E41"/>
<path d="M613.459 239.946L508.91 105.758C504.163 110.217 498.314 113.251 492.002 114.527C472.32 118.508 453.098 104.703 449.069 83.6926C447.68 76.744 448.166 69.5379 450.473 62.8519C452.779 56.1659 456.82 50.2539 462.159 45.7541L426.511 3.05176e-05L223.418 178.277L410.367 418.223L613.459 239.946Z" fill="#F2F2F2"/>
<path d="M483.553 108.152C499.831 108.152 513.027 94.5982 513.027 77.879C513.027 61.1597 499.831 47.6061 483.553 47.6061C467.275 47.6061 454.079 61.1597 454.079 77.879C454.079 94.5982 467.275 108.152 483.553 108.152Z" fill="#F2F2F2"/>
<path d="M299.129 212.77L290.11 223.489L320.493 250.454L329.511 239.734L299.129 212.77Z" fill="#00ADB5"/>
<path d="M494.44 404.474L485.422 415.194L512.354 439.095L521.372 428.375L494.44 404.474Z" fill="#00ADB5"/>
<path d="M543.101 324.63V325.462C543.083 327.549 543.025 329.627 542.927 331.695C541.174 367.093 526.306 400.463 501.37 424.964C476.434 449.466 443.319 463.245 408.811 463.477C374.302 463.709 341.014 450.376 315.769 426.211C290.523 402.047 275.231 368.88 273.028 333.508C272.844 330.571 272.752 327.612 272.752 324.631C272.703 295.875 281.392 267.82 297.607 244.379C298.904 242.49 300.252 240.635 301.653 238.816C302.619 237.55 303.612 236.313 304.614 235.085C327.433 207.32 359.938 189.847 395.156 186.414C430.374 182.982 465.499 193.863 492.995 216.724C494.622 218.075 496.222 219.473 497.785 220.899C499.036 222.042 500.265 223.21 501.473 224.403C525.258 247.77 539.898 279.268 542.632 312.957C542.945 316.81 543.101 320.701 543.101 324.63Z" fill="#393E46"/>
<path d="M407.927 480.941C324.011 480.941 255.74 410.82 255.74 324.63C255.69 285.196 270.201 247.21 296.347 218.332L299.717 221.545C274.362 249.55 260.289 286.388 260.338 324.63C260.338 408.216 326.546 476.218 407.927 476.218C427.7 476.287 447.282 472.241 465.492 464.325C483.702 456.409 500.162 444.787 513.879 430.16L517.18 433.447C503.036 448.53 486.063 460.515 467.286 468.677C448.508 476.84 428.316 481.012 407.927 480.941Z" fill="#00ADB5"/>
<path d="M429.996 477.635H391.374V517.303H429.996V477.635Z" fill="#00ADB5"/>
<path d="M301.653 238.816C301.72 238.844 301.782 238.882 301.837 238.929C302.564 239.543 301.653 240.723 301.764 241.696C301.892 242.943 303.511 243.217 304.734 243.34C305.957 243.472 307.502 244.483 306.922 245.597C303.851 246.683 300.743 245.616 297.607 244.379C281.392 267.82 272.703 295.875 272.752 324.63C272.752 327.615 272.844 330.574 273.028 333.509C273.285 333.701 273.566 333.857 273.864 333.971C274.784 334.33 275.851 334.264 276.697 334.774C277.368 335.18 277.818 335.898 278.49 336.276C280.412 337.353 283.078 335.284 284.871 336.569C285.335 337.002 285.774 337.463 286.186 337.948C287.842 339.421 290.564 338.429 292.476 339.534C293.708 340.243 294.343 341.659 295.005 342.944C296.651 346.155 299.318 349.31 302.84 349.565C303.95 349.512 305.063 349.55 306.168 349.678C307.253 349.933 308.32 350.906 308.145 352.03C307.842 353.966 308.771 356.081 308.522 358.018C308.072 361.559 303.189 363.108 302.775 366.65C302.774 367.43 302.731 368.208 302.647 368.983C302.426 369.909 301.745 370.664 301.506 371.59C301.046 373.337 302.269 375.084 303.603 376.255C304.945 377.436 306.545 378.456 307.281 380.099C308.053 381.847 307.676 383.877 307.925 385.776C308.477 389.922 311.962 392.991 315.548 394.975C316.697 395.468 317.718 396.232 318.527 397.204C319.447 398.573 319.355 400.377 319.668 402.011C320.422 406.006 323.695 409.303 323.787 413.373C323.851 416.273 322.288 418.898 321.35 421.628C320.385 424.489 320.099 427.546 320.514 430.544C325.757 435.111 331.33 439.263 337.185 442.964C337.504 442.48 337.737 441.943 337.875 441.377C337.986 440.751 337.909 440.105 337.655 439.524C337.4 438.944 336.98 438.457 336.449 438.128C337.438 437.744 338.337 437.152 339.089 436.39C339.458 436 339.702 435.503 339.787 434.965C339.873 434.428 339.796 433.877 339.567 433.387C341.185 433.594 343.107 433.698 344.174 432.423C345.029 431.403 344.974 429.873 344.633 428.579C344.167 427.321 343.858 426.007 343.714 424.669C347.464 424.857 351.222 424.727 354.951 424.282C354.411 422.414 353.184 420.835 351.53 419.881C353.222 419.588 354.758 417.51 355.291 415.838C355.752 414.133 355.778 412.334 355.365 410.615C355.237 410.174 355.218 409.706 355.31 409.255C355.582 408.656 356.06 408.182 356.652 407.924C359.448 406.271 362.243 404.621 365.038 402.975C365.537 402.716 365.991 402.375 366.381 401.964C367.255 400.897 367.126 399.301 366.675 397.988C366.225 396.675 365.507 395.438 365.333 394.059C364.818 389.931 369.121 386.966 370.574 383.074C371.068 381.521 371.335 379.901 371.365 378.267C371.484 376.51 371.494 374.48 370.188 373.356C368.928 372.27 366.969 372.515 365.655 371.505C364.45 370.579 364.036 368.794 362.721 368.048C361.526 367.368 360.036 367.802 358.703 367.481C356.367 366.924 354.896 364.157 352.505 363.902C351.162 363.751 349.636 364.431 348.532 363.628C347.558 362.91 347.521 361.484 347.337 360.275C347.01 358.392 346.13 356.657 344.815 355.303C343.5 353.948 341.813 353.04 339.98 352.7C338.592 352.474 337.084 352.559 335.898 351.775C334.702 350.981 334.16 349.498 333.213 348.393C331.704 346.627 329.314 345.994 327.079 345.456C324.045 344.729 321.013 343.998 317.985 343.265C316.375 342.868 314.297 342.66 313.424 344.115C313.165 344.668 312.986 345.257 312.89 345.862C312.562 346.952 311.907 347.908 311.019 348.593C310.13 349.278 309.054 349.658 307.943 349.678C307.183 348.344 305.951 347.363 304.504 346.939C303.559 346.776 302.625 346.549 301.709 346.259C301.23 346.018 300.804 345.68 300.458 345.264C300.111 344.849 299.851 344.365 299.692 343.842C299.534 343.32 299.481 342.77 299.537 342.225C299.592 341.681 299.756 341.154 300.017 340.677C300.538 339.719 300.739 338.611 300.587 337.524C300.436 336.437 299.942 335.431 299.18 334.661C297.635 333.235 295.4 332.885 293.322 333.027C292.78 331.809 293.69 330.439 294.665 329.551C295.649 328.673 296.835 327.804 297.046 326.482C297.387 324.404 294.803 322.827 292.844 323.44C290.885 324.064 289.635 326.019 288.807 327.946C288.406 329.082 287.858 330.159 287.18 331.147C286.832 331.636 286.359 332.017 285.814 332.247C285.268 332.477 284.672 332.547 284.09 332.451C282.471 332.026 281.855 330.052 281.497 328.389C280.922 326.168 280.631 323.879 280.632 321.58C280.646 319.258 281.544 317.035 283.134 315.384C285.809 312.853 289.929 313.098 293.543 313.505C293.156 312.974 292.97 312.317 293.021 311.657C293.072 310.996 293.355 310.377 293.819 309.916C294.302 309.475 294.884 309.161 295.512 309.003C296.14 308.845 296.796 308.847 297.423 309.009C298.513 309.241 299.495 309.843 300.21 310.718C301.24 312.003 301.534 313.75 302.306 315.205C303.088 316.669 304.835 317.915 306.26 317.131C307.502 316.451 307.695 314.695 307.391 313.287C307.079 311.89 306.426 310.52 306.536 309.084C306.748 306.355 309.516 304.702 311.952 303.578C314.389 302.454 317.176 300.934 317.562 298.214C317.58 297.685 317.679 297.162 317.856 296.665C318.126 296.221 318.503 295.856 318.95 295.607C326.058 290.781 333.295 285.888 341.424 283.253C341.847 283.111 341.893 283.263 342.325 283.159C342.932 282.8 342.528 281.808 341.948 281.411C341.369 281.015 340.597 280.703 340.45 280.004C340.348 279.494 340.643 278.984 340.716 278.465C340.735 278.151 340.679 277.837 340.553 277.551C340.427 277.264 340.234 277.014 339.992 276.822C339.749 276.63 339.465 276.502 339.163 276.449C338.861 276.396 338.552 276.42 338.261 276.519C337.608 275.631 338.896 274.602 339.944 274.3C343.083 273.416 346.304 272.878 349.553 272.694C349.928 272.63 350.313 272.697 350.647 272.883C350.886 273.12 351.028 273.441 351.043 273.782C351.059 274.123 350.947 274.457 350.73 274.715C350.288 275.22 349.798 275.678 349.268 276.085C348.741 276.611 348.364 277.276 348.179 278.007C347.994 278.738 348.008 279.507 348.22 280.231C349.921 281.119 351.76 282.035 353.645 281.723C355.521 281.411 357.185 279.239 356.303 277.511C355.484 275.896 353.011 275.527 352.588 273.761C352.091 271.693 354.942 269.851 354.298 267.83C354.022 266.942 353.158 266.413 352.496 265.78C351.717 264.992 351.187 263.982 350.975 262.88C350.763 261.778 350.88 260.636 351.31 259.604C350.233 259.797 349.127 259.723 348.084 259.387C347.041 259.052 346.091 258.466 345.314 257.677C343.88 256.194 342.739 253.842 340.698 253.918C338.831 253.974 337.222 256.213 335.475 255.533C335.043 255.363 334.592 255.023 334.178 255.221C334.042 255.311 333.927 255.432 333.842 255.574C333.758 255.717 333.706 255.877 333.691 256.043C333.249 258.225 334.013 260.709 332.854 262.597C331.594 264.647 328.679 264.93 327.153 266.782C326.325 267.783 326.003 269.133 325.24 270.191C324.477 271.249 322.868 271.929 321.948 271.003C322.398 270.055 322.522 268.978 322.298 267.948C322.074 266.919 321.516 265.998 320.716 265.336C319.869 264.766 318.954 264.308 317.994 263.976C316.921 263.512 315.901 262.929 314.95 262.239C314.476 261.942 314.091 261.517 313.838 261.011C313.637 260.374 313.663 259.684 313.911 259.065C314.377 257.701 315.195 256.493 316.279 255.571C317.363 254.649 318.671 254.048 320.063 253.833C321.277 253.663 322.693 253.719 323.502 252.766C323.925 252.265 324.146 251.5 324.771 251.302C325.165 251.217 325.575 251.267 325.939 251.443C327.456 251.991 328.964 252.539 330.481 253.087C330.987 253.325 331.546 253.42 332.1 253.361C332.374 253.324 332.625 253.182 332.801 252.963C332.977 252.743 333.065 252.464 333.047 252.18C332.9 251.406 331.741 251.037 331.852 250.253C331.905 249.997 332.037 249.765 332.229 249.592C333.869 247.8 335.874 246.403 338.101 245.5C340.328 244.597 342.722 244.211 345.112 244.369C345.682 245.342 344.781 246.485 344.017 247.306C343.263 248.138 342.656 249.611 343.576 250.244C343.947 250.444 344.362 250.541 344.781 250.527C345.899 250.681 346.986 251.019 347.999 251.528C349.572 252.227 351.116 253.002 352.624 253.833C352.402 252.82 352.44 251.766 352.735 250.773C352.901 250.285 353.238 249.879 353.68 249.633C354.122 249.387 354.637 249.318 355.126 249.441C356.027 249.8 356.487 251.028 357.452 251.141C358.73 251.292 359.236 249.347 358.703 248.138C358.169 246.929 357.103 245.928 357.02 244.596C356.956 243.708 357.287 242.603 356.597 242.065C356.352 241.898 356.071 241.794 355.779 241.762C350.004 240.676 344.226 239.587 338.445 238.495C337.415 238.296 335.934 238.447 335.889 239.515C335.861 240.119 336.385 240.714 336.155 241.262C335.907 241.847 335.098 241.8 334.509 242.008C334.067 242.214 333.702 242.562 333.47 243C333.238 243.438 333.151 243.942 333.222 244.435C333.379 245.417 333.75 246.35 334.307 247.165C333.176 246.683 331.475 246.598 330.344 246.107C330.179 244.762 329.845 243.444 329.35 242.187C329.322 241.987 329.252 241.796 329.144 241.627C329.036 241.458 328.893 241.316 328.725 241.209C328.558 241.103 328.37 241.036 328.175 241.012C327.979 240.989 327.781 241.009 327.594 241.073C326.104 241.309 324.615 241.536 323.125 241.772C322.751 241.79 322.393 241.933 322.104 242.178C321.525 242.811 322.095 243.821 322.077 244.69C322.023 245.176 321.823 245.633 321.505 245.997C321.187 246.361 320.767 246.614 320.302 246.721C319.366 246.916 318.4 246.903 317.47 246.683C315.382 246.353 313.304 246.022 311.217 245.691C313.059 245.088 314.698 243.962 315.943 242.442C316.771 241.441 317.212 239.571 316.017 239.099C315.664 238.999 315.295 238.971 314.932 239.014C312.1 239.033 309.865 236.606 307.217 235.576C306.384 235.257 305.503 235.091 304.614 235.085L301.653 238.816Z" fill="#00ADB5"/>
<path d="M542.927 331.695C542.602 332.142 542.176 332.501 541.686 332.74C541.195 332.978 540.655 333.09 540.113 333.065C537.235 332.81 536.021 328.55 533.17 328.068C532.918 328.002 532.651 328.029 532.416 328.144C531.993 328.38 531.92 328.966 531.892 329.457C531.772 331.893 531.671 334.425 532.6 336.672C533.952 339.959 537.455 342.717 536.72 346.202C532.766 344.323 530.706 339.761 529.777 335.388C528.839 331.015 528.692 326.425 527.018 322.288C525.74 323.96 523.073 322.581 521.915 320.824C520.811 319.162 520.131 317.235 519.064 315.545C517.998 313.863 516.361 312.352 514.411 312.258C512.361 312.163 510.577 313.608 509.013 314.978C507.654 316.01 506.512 317.314 505.657 318.812C504.563 321.079 504.848 323.743 504.793 326.264C504.738 328.984 504.177 331.865 502.365 333.867C500.554 335.86 497.215 336.559 495.22 334.755C494.255 333.722 493.568 332.45 493.225 331.062C491.055 324.569 489.25 317.953 487.818 311.247C487.487 312.777 486.172 314.751 484.921 313.854C484.641 313.61 484.416 313.307 484.259 312.966C481.923 308.914 477.611 306.478 473.243 305.014C468.884 303.559 464.295 302.879 459.983 301.274C457.564 300.372 455.253 299.19 453.095 297.751C452.547 298.58 452.227 299.546 452.169 300.547C452.11 301.548 452.316 302.546 452.764 303.436C453.249 304.308 454 304.99 454.901 305.378C455.803 305.766 456.803 305.837 457.748 305.58C458.704 305.259 459.514 304.579 460.461 304.239C461.408 303.909 462.686 304.069 463.1 305.014C463.505 305.911 462.898 306.997 463.201 307.942C463.652 309.368 465.757 309.481 466.493 310.784C466.709 311.301 466.759 311.874 466.635 312.421C466.511 312.969 466.219 313.461 465.803 313.826C464.957 314.534 464.023 315.125 463.026 315.582C459.937 317.349 457.739 320.361 455.035 322.704C452.332 325.055 448.516 326.765 445.297 325.263C446.061 321.268 441.435 318.34 440.58 314.364C440.295 313.051 440.442 311.663 440.047 310.388C439.467 308.537 437.867 307.271 436.562 305.873C434.975 304.157 433.739 302.133 432.926 299.919C432.112 297.705 431.738 295.346 431.826 292.981C431.899 291.338 432.194 289.666 431.826 288.06C431.467 286.464 430.171 284.915 428.571 284.981C424.92 285.151 420.313 285.435 418.4 282.233C417.711 281.09 417.416 279.419 418.409 278.54C418.798 278.287 419.231 278.116 419.684 278.037C420.137 277.958 420.601 277.971 421.049 278.077C423.798 278.351 426.538 278.635 429.288 278.908C431.21 279.097 433.288 279.258 434.943 278.228C436.598 277.199 437.316 274.451 435.78 273.232C434.667 272.344 432.663 272.392 432.332 270.984C432.065 269.804 433.334 268.472 432.644 267.48C432.157 266.781 431.053 266.97 430.382 267.499C429.796 268.124 429.16 268.696 428.479 269.209C427.164 269.908 425.6 269.237 424.184 268.784C422.768 268.33 420.874 268.293 420.193 269.643C419.421 271.145 420.865 273.128 420.111 274.639C419.099 276.632 415.697 275.499 414.281 277.218C412.662 279.182 415.384 282.129 414.842 284.641C414.143 284.997 413.367 285.161 412.588 285.116C411.81 285.071 411.056 284.82 410.4 284.386C409.757 283.937 409.244 283.316 408.917 282.591C408.59 281.866 408.46 281.063 408.543 280.269C408.671 279.135 409.251 277.973 408.864 276.906C408.448 276.082 407.761 275.436 406.924 275.083C404.257 273.563 401.591 272.048 398.924 270.54C398.179 271.957 399.117 273.704 400.294 274.772C401.462 275.829 402.933 276.632 403.706 278.03C404.195 278.999 404.305 280.123 404.015 281.173C403.724 282.222 403.055 283.118 402.142 283.678C402.027 283.76 401.896 283.814 401.758 283.839C401.62 283.863 401.478 283.857 401.342 283.82C401.215 283.743 401.104 283.641 401.015 283.519C400.927 283.397 400.863 283.259 400.828 283.111C399.421 279.4 397.296 275.744 393.912 273.808C390.519 271.863 385.655 272.269 383.429 275.527C382.905 276.302 382.547 277.189 382.087 278.011C379.65 282.365 374.409 284.424 369.517 284.292C369.038 284.323 368.561 284.208 368.146 283.961C367.356 283.404 367.392 282.214 367.512 281.232C367.687 279.843 367.852 278.464 368.027 277.076C368.031 276.228 368.35 275.414 368.919 274.8C369.829 274.063 371.135 274.526 372.294 274.507C373.168 274.467 374.009 274.151 374.702 273.601C375.395 273.052 375.906 272.296 376.165 271.438C376.398 270.571 376.396 269.656 376.16 268.79C375.923 267.924 375.461 267.142 374.822 266.526C374.298 266.016 373.59 265.374 373.866 264.685C373.978 264.495 374.129 264.332 374.309 264.208C374.488 264.084 374.692 264.002 374.905 263.967C376.974 263.353 379.172 263.192 381.204 262.456C383.246 261.728 385.223 260.236 385.71 258.073C385.857 257.412 385.922 256.609 386.501 256.279C386.793 256.158 387.105 256.094 387.42 256.09C388.526 255.927 389.532 255.346 390.242 254.46C390.951 253.574 391.313 252.447 391.255 251.301C392.23 250.603 393.6 251.122 394.547 251.868C395.485 252.614 396.322 253.597 397.471 253.918C399.614 254.522 401.683 252.567 403.908 252.558C404.846 252.558 405.812 252.898 406.685 252.567C407.577 252.237 408.11 251.33 408.791 250.659C409.481 249.979 410.676 249.573 411.31 250.3C411.127 248.931 410.952 247.571 410.768 246.211C411.851 246.491 412.981 246.53 414.08 246.325C415.179 246.119 416.223 245.675 417.141 245.021C414.823 244.218 412.515 243.415 410.198 242.612C409.954 242.551 409.73 242.427 409.545 242.253C409.039 241.696 409.545 240.827 409.95 240.194C410.933 238.674 411.099 236.171 409.481 235.415C408.377 234.896 407.117 235.519 406.06 236.124C404.368 237.087 402.676 238.06 400.984 239.023C400.828 240.015 402.005 240.582 402.731 241.243C403.174 241.646 403.487 242.178 403.63 242.767C403.773 243.357 403.739 243.978 403.532 244.547C403.325 245.116 402.955 245.608 402.47 245.957C401.986 246.307 401.41 246.497 400.818 246.504C401.152 246.95 401.383 247.468 401.496 248.019C401.609 248.57 401.601 249.139 401.471 249.686C400.34 249.771 399.2 249.856 398.06 249.941C397.87 249.98 397.675 249.98 397.486 249.941C397.297 249.902 397.117 249.825 396.956 249.715C396.588 249.384 396.644 248.799 396.552 248.307C396.4 247.72 396.081 247.193 395.635 246.795C395.189 246.396 394.637 246.143 394.05 246.069C392.879 245.934 391.693 246.046 390.565 246.4C390.075 246.577 389.539 246.564 389.057 246.362C388.784 246.176 388.578 245.904 388.469 245.587C388.269 244.94 388.235 244.25 388.37 243.585C388.505 242.92 388.805 242.302 389.241 241.791C390.124 240.783 391.097 239.863 392.147 239.042C394.526 236.903 396.275 234.122 397.195 231.014C399.071 230.202 401.012 229.106 402.897 228.294C404.412 227.573 406 227.025 407.632 226.66C409.168 226.419 410.725 226.343 412.276 226.433C414.391 226.471 416.515 226.509 418.63 226.556C420.518 226.475 422.404 226.753 424.194 227.378C425.931 228.115 427.467 229.711 427.587 231.638C427.623 231.857 427.604 232.083 427.531 232.292C427.459 232.502 427.336 232.69 427.173 232.837C426.929 232.976 426.652 233.041 426.373 233.026C424.617 233.083 423.872 233.536 422.115 233.602C423.228 234.82 424.479 236.105 426.097 236.322C428.948 236.7 430.998 233.668 432.313 231.033C432.36 231.704 432.661 232.329 433.15 232.776C433.64 233.222 434.28 233.454 434.934 233.423C435.638 233.298 436.311 233.028 436.911 232.629C442.567 229.454 448.903 227.773 455.348 227.737C455.285 227.236 455.405 226.728 455.685 226.313C455.966 225.898 456.386 225.604 456.865 225.489C458.18 225.225 459.357 226.386 459.992 227.595C460.617 228.804 461.013 230.202 462.024 231.109C463.026 232.015 464.967 231.968 465.362 230.665C465.748 229.409 464.47 228.332 463.413 227.586C462.346 226.849 461.233 225.48 461.951 224.384C467.358 223.147 472.81 221.919 478.355 221.673C479.298 221.703 480.236 221.536 481.114 221.182C481.549 220.993 481.911 220.662 482.143 220.24C482.376 219.818 482.467 219.33 482.401 218.849C481.192 219.139 479.925 219.054 478.762 218.603C477.6 218.152 476.594 217.357 475.873 216.318C481.565 215.836 487.523 215.411 492.995 216.724L497.786 220.899C496.875 221.872 495.661 222.788 496.324 223.761C496.542 223.984 496.807 224.154 497.098 224.257C497.39 224.36 497.7 224.394 498.006 224.356C499.165 224.375 500.324 224.403 501.473 224.403C525.258 247.77 539.898 279.268 542.632 312.957C540.701 312.881 538.927 315.393 539.175 317.585C539.469 320.125 541.253 322.165 542.531 324.356C542.743 324.713 542.933 325.082 543.101 325.462L542.927 331.695Z" fill="#00ADB5"/>
<path d="M289.616 64.9774C296.059 64.9774 301.281 59.6133 301.281 52.9964C301.281 46.3795 296.059 41.0155 289.616 41.0155C283.174 41.0155 277.951 46.3795 277.951 52.9964C277.951 59.6133 283.174 64.9774 289.616 64.9774Z" stroke="#393E46" stroke-width="2" stroke-miterlimit="10"/>
<path d="M634.292 293.138C640.734 293.138 645.957 287.774 645.957 281.157C645.957 274.541 640.734 269.177 634.292 269.177C627.85 269.177 622.627 274.541 622.627 281.157C622.627 287.774 627.85 293.138 634.292 293.138Z" stroke="#393E46" stroke-width="2" stroke-miterlimit="10"/>
<path d="M554.658 173.78C561.101 173.78 566.323 168.416 566.323 161.799C566.323 155.182 561.101 149.818 554.658 149.818C548.216 149.818 542.993 155.182 542.993 161.799C542.993 168.416 548.216 173.78 554.658 173.78Z" stroke="#393E46" stroke-width="2" stroke-miterlimit="10"/>
<path d="M478.125 276.457C485.355 276.457 491.216 270.437 491.216 263.012C491.216 255.586 485.355 249.566 478.125 249.566C470.895 249.566 465.034 255.586 465.034 263.012C465.034 270.437 470.895 276.457 478.125 276.457Z" fill="#393E46"/>
<path d="M520.175 237.519C529.705 237.519 537.43 229.584 537.43 219.796C537.43 210.007 529.705 202.072 520.175 202.072C510.645 202.072 502.919 210.007 502.919 219.796C502.919 229.584 510.645 237.519 520.175 237.519Z" fill="white"/>
<path d="M537.626 201.422C532.994 196.782 526.758 194.221 520.288 194.303C513.818 194.385 507.645 197.104 503.127 201.861C493.719 211.767 480.286 261.792 480.286 261.792C480.286 261.792 528.645 246.761 538.053 236.856C542.571 232.099 545.065 225.693 544.984 219.048C544.904 212.403 542.257 206.063 537.626 201.422ZM512.28 228.108C510.68 226.504 509.578 224.449 509.115 222.202C508.651 219.955 508.847 217.618 509.677 215.485C510.507 213.353 511.934 211.521 513.778 210.221C515.621 208.922 517.799 208.213 520.035 208.185C522.271 208.156 524.464 208.809 526.339 210.062C528.213 211.314 529.684 213.109 530.565 215.219C531.446 217.33 531.698 219.662 531.289 221.92C530.88 224.178 529.829 226.26 528.267 227.904C526.174 230.109 523.313 231.368 520.315 231.407C517.317 231.445 514.426 230.258 512.28 228.108Z" fill="#57B894"/>
</svg>
