<svg width="211" height="64" viewBox="0 0 211 64" fill="none" xmlns="http://www.w3.org/2000/svg">
<path d="M19.5838 33.824L28.1038 37.328L27.4798 39.176L17.1118 34.784V32.864L27.4798 28.472L28.1038 30.32L19.5838 33.824ZM33.3947 28.52H38.1227V30.392H33.3947V36.152C33.3947 36.776 33.4427 37.296 33.5387 37.712C33.6347 38.112 33.7787 38.432 33.9707 38.672C34.1627 38.896 34.4027 39.056 34.6907 39.152C34.9787 39.248 35.3147 39.296 35.6987 39.296C36.3707 39.296 36.9067 39.224 37.3067 39.08C37.7227 38.92 38.0107 38.808 38.1707 38.744L38.6027 40.592C38.3787 40.704 37.9867 40.84 37.4267 41C36.8667 41.176 36.2267 41.264 35.5067 41.264C34.6587 41.264 33.9547 41.16 33.3947 40.952C32.8507 40.728 32.4107 40.4 32.0747 39.968C31.7387 39.536 31.4987 39.008 31.3547 38.384C31.2267 37.744 31.1627 37.008 31.1627 36.176V25.04L33.3947 24.656V28.52ZM40.963 41V22.76L43.195 22.376V28.76C43.611 28.6 44.051 28.48 44.515 28.4C44.995 28.304 45.467 28.256 45.931 28.256C46.923 28.256 47.747 28.4 48.403 28.688C49.059 28.96 49.579 29.352 49.963 29.864C50.363 30.36 50.643 30.96 50.803 31.664C50.963 32.368 51.043 33.144 51.043 33.992V41H48.811V34.472C48.811 33.704 48.755 33.048 48.643 32.504C48.547 31.96 48.379 31.52 48.139 31.184C47.899 30.848 47.579 30.608 47.179 30.464C46.779 30.304 46.283 30.224 45.691 30.224C45.451 30.224 45.203 30.24 44.947 30.272C44.691 30.304 44.443 30.344 44.203 30.392C43.979 30.424 43.771 30.464 43.579 30.512C43.403 30.56 43.275 30.6 43.195 30.632V41H40.963ZM53.9779 34.784C53.9779 33.68 54.1379 32.72 54.4579 31.904C54.7779 31.072 55.2019 30.384 55.7299 29.84C56.2579 29.296 56.8659 28.888 57.5539 28.616C58.2419 28.344 58.9459 28.208 59.6659 28.208C61.3459 28.208 62.6339 28.736 63.5299 29.792C64.4259 30.832 64.8739 32.424 64.8739 34.568C64.8739 34.664 64.8739 34.792 64.8739 34.952C64.8739 35.096 64.8659 35.232 64.8499 35.36H56.3059C56.4019 36.656 56.7779 37.64 57.4339 38.312C58.0899 38.984 59.1139 39.32 60.5059 39.32C61.2899 39.32 61.9459 39.256 62.4739 39.128C63.0179 38.984 63.4259 38.848 63.6979 38.72L64.0099 40.592C63.7379 40.736 63.2579 40.888 62.5699 41.048C61.8979 41.208 61.1299 41.288 60.2659 41.288C59.1779 41.288 58.2339 41.128 57.4339 40.808C56.6499 40.472 56.0019 40.016 55.4899 39.44C54.9779 38.864 54.5939 38.184 54.3379 37.4C54.0979 36.6 53.9779 35.728 53.9779 34.784ZM62.5459 33.56C62.5619 32.552 62.3059 31.728 61.7779 31.088C61.2659 30.432 60.5539 30.104 59.6419 30.104C59.1299 30.104 58.6739 30.208 58.2739 30.416C57.8899 30.608 57.5619 30.864 57.2899 31.184C57.0179 31.504 56.8019 31.872 56.6419 32.288C56.4979 32.704 56.4019 33.128 56.3539 33.56H62.5459ZM81.4588 39.752C81.2668 39.88 80.8908 40.048 80.3308 40.256C79.7868 40.448 79.1468 40.544 78.4108 40.544C77.6588 40.544 76.9468 40.424 76.2748 40.184C75.6188 39.944 75.0428 39.576 74.5468 39.08C74.0508 38.568 73.6588 37.936 73.3708 37.184C73.0828 36.432 72.9388 35.536 72.9388 34.496C72.9388 33.584 73.0748 32.752 73.3468 32C73.6188 31.232 74.0108 30.576 74.5228 30.032C75.0508 29.472 75.6908 29.04 76.4428 28.736C77.1948 28.416 78.0428 28.256 78.9868 28.256C80.0268 28.256 80.9308 28.336 81.6988 28.496C82.4828 28.64 83.1388 28.776 83.6668 28.904V40.04C83.6668 41.96 83.1708 43.352 82.1788 44.216C81.1868 45.08 79.6828 45.512 77.6668 45.512C76.8828 45.512 76.1388 45.448 75.4348 45.32C74.7468 45.192 74.1468 45.04 73.6348 44.864L74.0428 42.92C74.4908 43.096 75.0348 43.248 75.6748 43.376C76.3308 43.52 77.0108 43.592 77.7148 43.592C79.0428 43.592 79.9948 43.328 80.5708 42.8C81.1628 42.272 81.4588 41.432 81.4588 40.28V39.752ZM81.4348 30.488C81.2108 30.424 80.9068 30.368 80.5228 30.32C80.1548 30.256 79.6508 30.224 79.0108 30.224C77.8108 30.224 76.8828 30.616 76.2268 31.4C75.5868 32.184 75.2668 33.224 75.2668 34.52C75.2668 35.24 75.3548 35.856 75.5308 36.368C75.7228 36.88 75.9708 37.304 76.2748 37.64C76.5948 37.976 76.9548 38.224 77.3548 38.384C77.7708 38.544 78.1948 38.624 78.6268 38.624C79.2188 38.624 79.7628 38.544 80.2588 38.384C80.7548 38.208 81.1468 38.008 81.4348 37.784V30.488ZM98.5258 34.76C98.5258 35.752 98.3818 36.648 98.0938 37.448C97.8058 38.248 97.3978 38.936 96.8698 39.512C96.3578 40.088 95.7418 40.536 95.0218 40.856C94.3018 41.16 93.5178 41.312 92.6698 41.312C91.8218 41.312 91.0378 41.16 90.3178 40.856C89.5978 40.536 88.9738 40.088 88.4458 39.512C87.9338 38.936 87.5338 38.248 87.2458 37.448C86.9578 36.648 86.8138 35.752 86.8138 34.76C86.8138 33.784 86.9578 32.896 87.2458 32.096C87.5338 31.28 87.9338 30.584 88.4458 30.008C88.9738 29.432 89.5978 28.992 90.3178 28.688C91.0378 28.368 91.8218 28.208 92.6698 28.208C93.5178 28.208 94.3018 28.368 95.0218 28.688C95.7418 28.992 96.3578 29.432 96.8698 30.008C97.3978 30.584 97.8058 31.28 98.0938 32.096C98.3818 32.896 98.5258 33.784 98.5258 34.76ZM96.1978 34.76C96.1978 33.352 95.8778 32.24 95.2378 31.424C94.6138 30.592 93.7578 30.176 92.6698 30.176C91.5818 30.176 90.7178 30.592 90.0778 31.424C89.4538 32.24 89.1418 33.352 89.1418 34.76C89.1418 36.168 89.4538 37.288 90.0778 38.12C90.7178 38.936 91.5818 39.344 92.6698 39.344C93.7578 39.344 94.6138 38.936 95.2378 38.12C95.8778 37.288 96.1978 36.168 96.1978 34.76ZM112.682 34.76C112.682 35.752 112.538 36.648 112.25 37.448C111.962 38.248 111.554 38.936 111.026 39.512C110.514 40.088 109.898 40.536 109.178 40.856C108.458 41.16 107.674 41.312 106.826 41.312C105.978 41.312 105.194 41.16 104.474 40.856C103.754 40.536 103.13 40.088 102.602 39.512C102.09 38.936 101.69 38.248 101.402 37.448C101.114 36.648 100.97 35.752 100.97 34.76C100.97 33.784 101.114 32.896 101.402 32.096C101.69 31.28 102.09 30.584 102.602 30.008C103.13 29.432 103.754 28.992 104.474 28.688C105.194 28.368 105.978 28.208 106.826 28.208C107.674 28.208 108.458 28.368 109.178 28.688C109.898 28.992 110.514 29.432 111.026 30.008C111.554 30.584 111.962 31.28 112.25 32.096C112.538 32.896 112.682 33.784 112.682 34.76ZM110.354 34.76C110.354 33.352 110.034 32.24 109.394 31.424C108.77 30.592 107.914 30.176 106.826 30.176C105.738 30.176 104.874 30.592 104.234 31.424C103.61 32.24 103.298 33.352 103.298 34.76C103.298 36.168 103.61 37.288 104.234 38.12C104.874 38.936 105.738 39.344 106.826 39.344C107.914 39.344 108.77 38.936 109.394 38.12C110.034 37.288 110.354 36.168 110.354 34.76ZM123.886 31.16C123.614 30.936 123.222 30.72 122.71 30.512C122.198 30.304 121.638 30.2 121.03 30.2C120.39 30.2 119.838 30.32 119.374 30.56C118.926 30.784 118.558 31.104 118.27 31.52C117.982 31.92 117.774 32.4 117.646 32.96C117.518 33.52 117.454 34.12 117.454 34.76C117.454 36.216 117.814 37.344 118.534 38.144C119.254 38.928 120.214 39.32 121.414 39.32C122.022 39.32 122.526 39.296 122.926 39.248C123.342 39.184 123.662 39.12 123.886 39.056V31.16ZM123.886 22.76L126.118 22.376V40.64C125.606 40.784 124.95 40.928 124.15 41.072C123.35 41.216 122.43 41.288 121.39 41.288C120.43 41.288 119.566 41.136 118.798 40.832C118.03 40.528 117.374 40.096 116.83 39.536C116.286 38.976 115.862 38.296 115.558 37.496C115.27 36.68 115.126 35.768 115.126 34.76C115.126 33.8 115.246 32.92 115.486 32.12C115.742 31.32 116.11 30.632 116.59 30.056C117.07 29.48 117.654 29.032 118.342 28.712C119.046 28.392 119.846 28.232 120.742 28.232C121.462 28.232 122.094 28.328 122.638 28.52C123.198 28.712 123.614 28.896 123.886 29.072V22.76ZM143.574 31.16C143.302 30.936 142.91 30.72 142.398 30.512C141.886 30.304 141.326 30.2 140.718 30.2C140.078 30.2 139.526 30.32 139.062 30.56C138.614 30.784 138.246 31.104 137.958 31.52C137.67 31.92 137.462 32.4 137.334 32.96C137.206 33.52 137.142 34.12 137.142 34.76C137.142 36.216 137.502 37.344 138.222 38.144C138.942 38.928 139.902 39.32 141.102 39.32C141.71 39.32 142.214 39.296 142.614 39.248C143.03 39.184 143.35 39.12 143.574 39.056V31.16ZM143.574 22.76L145.806 22.376V40.64C145.294 40.784 144.638 40.928 143.838 41.072C143.038 41.216 142.118 41.288 141.078 41.288C140.118 41.288 139.254 41.136 138.486 40.832C137.718 40.528 137.062 40.096 136.518 39.536C135.974 38.976 135.55 38.296 135.246 37.496C134.958 36.68 134.814 35.768 134.814 34.76C134.814 33.8 134.934 32.92 135.174 32.12C135.43 31.32 135.798 30.632 136.278 30.056C136.758 29.48 137.342 29.032 138.03 28.712C138.734 28.392 139.534 28.232 140.43 28.232C141.15 28.232 141.782 28.328 142.326 28.52C142.886 28.712 143.302 28.896 143.574 29.072V22.76ZM148.947 34.784C148.947 33.68 149.107 32.72 149.427 31.904C149.747 31.072 150.171 30.384 150.699 29.84C151.227 29.296 151.835 28.888 152.523 28.616C153.211 28.344 153.915 28.208 154.635 28.208C156.315 28.208 157.603 28.736 158.499 29.792C159.395 30.832 159.843 32.424 159.843 34.568C159.843 34.664 159.843 34.792 159.843 34.952C159.843 35.096 159.835 35.232 159.819 35.36H151.275C151.371 36.656 151.747 37.64 152.403 38.312C153.059 38.984 154.083 39.32 155.475 39.32C156.259 39.32 156.915 39.256 157.443 39.128C157.987 38.984 158.395 38.848 158.667 38.72L158.979 40.592C158.707 40.736 158.227 40.888 157.539 41.048C156.867 41.208 156.099 41.288 155.235 41.288C154.147 41.288 153.203 41.128 152.403 40.808C151.619 40.472 150.971 40.016 150.459 39.44C149.947 38.864 149.563 38.184 149.307 37.4C149.067 36.6 148.947 35.728 148.947 34.784ZM157.515 33.56C157.531 32.552 157.275 31.728 156.747 31.088C156.235 30.432 155.523 30.104 154.611 30.104C154.099 30.104 153.643 30.208 153.243 30.416C152.859 30.608 152.531 30.864 152.259 31.184C151.987 31.504 151.771 31.872 151.611 32.288C151.467 32.704 151.371 33.128 151.323 33.56H157.515ZM172.793 28.52C172.169 30.856 171.433 33.096 170.585 35.24C169.753 37.384 168.945 39.304 168.161 41H166.145C165.361 39.304 164.545 37.384 163.697 35.24C162.865 33.096 162.137 30.856 161.513 28.52H163.913C164.105 29.304 164.329 30.144 164.585 31.04C164.857 31.92 165.137 32.8 165.425 33.68C165.729 34.544 166.033 35.384 166.337 36.2C166.641 37.016 166.929 37.744 167.201 38.384C167.473 37.744 167.761 37.016 168.065 36.2C168.369 35.384 168.665 34.544 168.953 33.68C169.257 32.8 169.537 31.92 169.793 31.04C170.065 30.144 170.297 29.304 170.489 28.52H172.793ZM174.106 45.44H171.826L179.962 22.208H182.194L174.106 45.44ZM182.885 30.32L183.509 28.472L193.877 32.864V34.784L183.509 39.176L182.885 37.328L191.405 33.824L182.885 30.32Z" fill="#00ADB5"/>
</svg>
